<?xml version="1.0" encoding="utf-8"?>
<!-- Generator: Adobe Illustrator 23.0.3, SVG Export Plug-In . SVG Version: 6.00 Build 0)  -->
<svg version="1.1" id="Laag_1" xmlns="http://www.w3.org/2000/svg" xmlns:xlink="http://www.w3.org/1999/xlink" x="0px" y="0px"
	 viewBox="0 0 208.9 55.9" style="enable-background:new 0 0 208.9 55.9;" xml:space="preserve">
<g>
	<path d="M0,1.1h21.8v5.4H7.1V16h11.5v5.4H7.1v14H0V1.1z"/>
	<path d="M25,22.8v-0.7c0-8.6,5.1-13.1,12.2-13.1c7.9,0,11.2,4.5,11.2,12.8v2.4H31.7c0.5,5,3.2,6.7,7.9,6.7c3.2,0,5.7-0.8,7.9-1.7
		v4.3c-1.8,1.2-4.9,2.4-9.4,2.4C29.3,35.9,25,31.1,25,22.8z M31.7,20h10.2c0-4.6-1.6-6.3-4.9-6.3C34.6,13.7,32,15.1,31.7,20z"/>
	<path d="M51.5,34.1v-4.7c2,0.9,4.1,1.6,7.7,1.6c3.5,0,4.9-1,4.9-2.8c0-1.7-0.9-2.4-3.6-3l-2.4-0.5c-4.1-0.8-6.7-2.8-6.7-7.6
		c0-4.9,3.2-8,9.9-8c3.6,0,5.9,0.6,7.7,1.4v4.7c-1.6-0.6-4-1.2-7-1.2c-3,0-4.4,0.9-4.4,2.7c0,1.7,0.9,2.3,3.4,2.8l2.5,0.5
		c5.1,1.1,7.1,3.2,7.1,7.8c0,5.5-3.6,8.3-10.3,8.3C56.7,35.9,53.5,35.2,51.5,34.1z"/>
	<path d="M76.4,28.8V14.4h-3.5V9.5h3.5V3.4h6.5v6.1h6v4.9h-6v13.4c0,2.2,0.9,3,3.4,3c1,0,2.1-0.1,2.8-0.4v4.4
		c-1,0.5-2.5,1.1-5.1,1.1C79.3,35.7,76.4,34,76.4,28.8z"/>
	<path d="M93.5,0h6.7v5.6h-6.7V0z M93.5,9.5h6.6v25.9h-6.6V9.5z"/>
	<path d="M106.6,21.1h7.1V50h14.1v5.5h-21.2V21.1z"/>
	<path d="M130.7,42.9v-0.7c0-8.5,5.2-13.2,12.6-13.2c8,0,12.5,4.7,12.5,13v0.7c0,8.5-5.2,13.2-12.6,13.2
		C135.1,55.9,130.7,51.1,130.7,42.9z M149,43.2V42c0-6.6-2.5-8.2-5.9-8.2c-3.6,0-5.7,2.4-5.7,8v1.1c0,6.5,2.6,8.2,5.9,8.2
		C146.9,51.1,149,48.7,149,43.2z"/>
	<path d="M158.1,29.5h6.9l6,18.1h0.2l6-18.1h6.3l-9.3,25.9h-6.9L158.1,29.5z"/>
	<path d="M185.6,42.8v-0.7c0-8.6,5.2-13.1,12.2-13.1c7.9,0,11.2,4.5,11.2,12.8v2.4h-16.6c0.4,5,3.1,6.7,7.8,6.7
		c3.2,0,5.7-0.8,7.9-1.7v4.3c-1.8,1.2-4.8,2.4-9.4,2.4C190,55.9,185.6,51.1,185.6,42.8z M192.3,40h10.2c0-4.6-1.7-6.3-4.9-6.3
		C195.3,33.7,192.7,35.1,192.3,40z"/>
</g>
</svg>
